@startuml

class Article {
	{field} -id : UUID
	{field} -name : String
	{field} -text : String
	{method} +clearanceLevel () : ClearanceLevel
	{method} +equals ( o : Object ) : boolean
	{method} +hashCode () : int
	{method} +id () : UUID
	{method} +name () : String
	{method} +text () : String
	{method} +toString () : String
}


class CatalogProduct {
	{field} -coverUrl : String
	{field} -id : int
	{field} -name : String
	{method} +coverUrl () : String
	{method} +equals ( o : Object ) : boolean
	{method} +hashCode () : int
	{method} +id () : int
	{method} +name () : String
	{method} +toString () : String
}


enum ClearanceLevel {
	{field} +ALPHA
	{field} +BETA
	{field} +DELTA
	{field} +GAMMA
	{field} +OMEGA
}


class Cosm {
	{field} -axioms : Map
	{field} -id : UUID
	{field} -name : String
	{field} -products : Set
	{field} -slug : String
	{field} -text : String
	{field} -worldLaws : String
	{method} +axioms () : Map
	{method} +clearanceLevel () : ClearanceLevel
	{method} +equals ( o : Object ) : boolean
	{method} +hashCode () : int
	{method} +id () : UUID
	{method} +name () : String
	{method} +products () : Set
	{method} +slug () : String
	{method} +text () : String
	{method} +toString () : String
	{method} +worldLaws () : String
}


class CosmReference {
	{field} -id : UUID
	{field} -name : String
	{method} +equals ( o : Object ) : boolean
	{method} +hashCode () : int
	{method} +id () : UUID
	{method} +name () : String
	{method} +toString () : String
}


class DifficultyNumber {
	{field} -level : String
	{field} -text : String
	{method} +equals ( o : Object ) : boolean
	{method} +hashCode () : int
	{method} +level () : String
	{method} +text () : String
	{method} +toString () : String
}


class DomainEvent {
	{field} -metadata : Map
	{field} -payload : Object
	{field} -type : String
	{method} +equals ( o : Object ) : boolean
	{method} +hashCode () : int
	{method} +metadata () : Map
	{method} +payload () : Object
	{method} +toString () : String
	{method} +type () : String
}


interface DomainEventPublisher {
	{method}  {abstract} +publish ( event : DomainEvent ) : void
	{method} +publishAll ( events : Iterable ) : void
}


class DomainModelValidator {
	{field} -validator : Validator
	{method} +validate ( model : Object ) : Object
}


class Item {
	{field} -additionalFeatures : String
	{field} -ammo : String
	{field} -axiomMagic : String
	{field} -axiomTech : String
	{field} -bonus : String
	{field} -cosms : Set
	{field} -features : String
	{field} -id : UUID
	{field} -name : String
	{field} -price : String
	{field} -products : Set
	{field} -range : String
	{field} -text : String
	{field} -type : String
	{method} +additionalFeatures () : String
	{method} +ammo () : String
	{method} +axiomMagic () : String
	{method} +axiomTech () : String
	{method} +bonus () : String
	{method} +clearanceLevel () : ClearanceLevel
	{method} +cosms () : Set
	{method} +equals ( o : Object ) : boolean
	{method} +features () : String
	{method} +hashCode () : int
	{method} +id () : UUID
	{method} +name () : String
	{method} +price () : String
	{method} +products () : Set
	{method} +range () : String
	{method} +text () : String
	{method} +toString () : String
	{method} +type () : String
}


class Miracle {
	{field} -axiom : String
	{field} -castingTime : String
	{field} -duration : String
	{field} -id : UUID
	{field} -name : String
	{field} -products : Set
	{field} -range : String
	{field} -requiredSkills : Map
	{field} -text : String
	{method} +axiom () : String
	{method} +castingTime () : String
	{method} +clearanceLevel () : ClearanceLevel
	{method} +dn () : DifficultyNumber
	{method} +duration () : String
	{method} +equals ( o : Object ) : boolean
	{method} +hashCode () : int
	{method} +id () : UUID
	{method} +name () : String
	{method} +products () : Set
	{method} +range () : String
	{method} +requiredSkills () : Map
	{method} +text () : String
	{method} +toString () : String
}


class MiracleList {
	{field} -cosms : Set
	{field} -disableIf : String
	{field} -id : UUID
	{field} -miracles : List
	{field} -name : String
	{field} -notes : String
	{field} -products : Set
	{field} -text : String
	{field} -unlockingPerks : Set
	{method} +clearanceLevel () : ClearanceLevel
	{method} +cosms () : Set
	{method} +disableIf () : String
	{method} +equals ( o : Object ) : boolean
	{method} +hashCode () : int
	{method} +id () : UUID
	{method} +miracles () : List
	{method} +name () : String
	{method} +notes () : String
	{method} +products () : Set
	{method} +text () : String
	{method} +toString () : String
	{method} +unlockingPerks () : Set
}


class Perk {
	{field} -contradiction : boolean
	{field} -cosms : Set
	{field} -group : String
	{field} -id : UUID
	{field} -name : String
	{field} -prerequisites : String
	{field} -products : Set
	{field} -text : String
	{method} +clearanceLevel () : ClearanceLevel
	{method} +contradiction () : boolean
	{method} +cosms () : Set
	{method} +equals ( o : Object ) : boolean
	{method} +group () : String
	{method} +hashCode () : int
	{method} +id () : UUID
	{method} +name () : String
	{method} +prerequisites () : String
	{method} +products () : Set
	{method} +text () : String
	{method} +toString () : String
}


class PerkGroup {
	{field} -id : UUID
	{field} -infos : String
	{field} -name : String
	{field} -products : Set
	{field} -text : String
	{method} +clearanceLevel () : ClearanceLevel
	{method} +equals ( o : Object ) : boolean
	{method} +hashCode () : int
	{method} +id () : UUID
	{method} +infos () : String
	{method} +name () : String
	{method} +products () : Set
	{method} +text () : String
	{method} +toString () : String
}


class Power {
	{field} -axiom : String
	{field} -castingTime : String
	{field} -duration : String
	{field} -enhancements : String
	{field} -id : UUID
	{field} -limitations : String
	{field} -name : String
	{field} -products : Set
	{field} -range : String
	{field} -requiredSkills : Map
	{field} -text : String
	{method} +axiom () : String
	{method} +castingTime () : String
	{method} +clearanceLevel () : ClearanceLevel
	{method} +dn () : DifficultyNumber
	{method} +duration () : String
	{method} +enhancements () : String
	{method} +equals ( o : Object ) : boolean
	{method} +hashCode () : int
	{method} +id () : UUID
	{method} +limitations () : String
	{method} +name () : String
	{method} +products () : Set
	{method} +range () : String
	{method} +requiredSkills () : Map
	{method} +text () : String
	{method} +toString () : String
}


class PowerList {
	{field} -cosms : Set
	{field} -disableIf : String
	{field} -id : UUID
	{field} -name : String
	{field} -notes : String
	{field} -powers : List
	{field} -products : Set
	{field} -text : String
	{field} -unlockingPerks : Set
	{method} +clearanceLevel () : ClearanceLevel
	{method} +cosms () : Set
	{method} +disableIf () : String
	{method} +equals ( o : Object ) : boolean
	{method} +hashCode () : int
	{method} +id () : UUID
	{method} +name () : String
	{method} +notes () : String
	{method} +powers () : List
	{method} +products () : Set
	{method} +text () : String
	{method} +toString () : String
	{method} +unlockingPerks () : Set
}


class Publication {
	{field} {static} -DRIVETHRURPG_COVER_BASE : String
	{field} -codexId : String
	{field} -id : UUID
	{field} -name : String
	{field} -primaryProductId : int
	{field} -productIds : Set
	{field} -thirdParty : String
	{method} +codexId () : String
	{method} +coverURL () : String
	{method} +equals ( o : Object ) : boolean
	{method} +hashCode () : int
	{method} +id () : UUID
	{method} +name () : String
	{method} +primaryProductId () : int
	{method} +productIds () : Set
	{method} +thirdParty () : String
	{method} +toString () : String
}


class PublicationReference {
	{field} -id : UUID
	{field} -name : String
	{method} +equals ( o : Object ) : boolean
	{method} +hashCode () : int
	{method} +id () : UUID
	{method} +name () : String
	{method} +toString () : String
}


class Race {
	{field} -abilities : String
	{field} -attributeLimits : Map
	{field} -id : UUID
	{field} -major : boolean
	{field} -name : String
	{field} -perkText : String
	{field} -products : Set
	{field} -text : String
	{method} +abilities () : String
	{method} +attributeLimits () : Map
	{method} +clearanceLevel () : ClearanceLevel
	{method} +equals ( o : Object ) : boolean
	{method} +hashCode () : int
	{method} +id () : UUID
	{method} +major () : boolean
	{method} +name () : String
	{method} +perkText () : String
	{method} +products () : Set
	{method} +text () : String
	{method} +toString () : String
}


class Shard {
	{field} -cosms : Set
	{field} -id : UUID
	{field} -name : String
	{field} -possibilities : String
	{field} -powers : String
	{field} -products : Set
	{field} -purpose : String
	{field} -restrictions : String
	{field} -tappingDifficulty : String
	{field} -text : String
	{method} +clearanceLevel () : ClearanceLevel
	{method} +cosms () : Set
	{method} +equals ( o : Object ) : boolean
	{method} +hashCode () : int
	{method} +id () : UUID
	{method} +name () : String
	{method} +possibilities () : String
	{method} +powers () : String
	{method} +products () : Set
	{method} +purpose () : String
	{method} +restrictions () : String
	{method} +tappingDifficulty () : String
	{method} +text () : String
	{method} +toString () : String
}


class Spell {
	{field} -axiom : String
	{field} -castingTime : String
	{field} -duration : String
	{field} -id : UUID
	{field} -name : String
	{field} -products : Set
	{field} -range : String
	{field} -requiredSkills : Map
	{field} -text : String
	{method} +axiom () : String
	{method} +castingTime () : String
	{method} +clearanceLevel () : ClearanceLevel
	{method} +dn () : DifficultyNumber
	{method} +duration () : String
	{method} +equals ( o : Object ) : boolean
	{method} +hashCode () : int
	{method} +id () : UUID
	{method} +name () : String
	{method} +products () : Set
	{method} +range () : String
	{method} +requiredSkills () : Map
	{method} +text () : String
	{method} +toString () : String
}


class SpellList {
	{field} -cosms : Set
	{field} -disableIf : String
	{field} -id : UUID
	{field} -name : String
	{field} -notes : String
	{field} -products : Set
	{field} -spells : List
	{field} -text : String
	{field} -unlockingPerks : Set
	{method} +clearanceLevel () : ClearanceLevel
	{method} +cosms () : Set
	{method} +disableIf () : String
	{method} +equals ( o : Object ) : boolean
	{method} +hashCode () : int
	{method} +id () : UUID
	{method} +name () : String
	{method} +notes () : String
	{method} +products () : Set
	{method} +spells () : List
	{method} +text () : String
	{method} +toString () : String
	{method} +unlockingPerks () : Set
}


class Tag {
	{field} -id : UUID
	{field} -name : String
	{field} -parent : UUID
	{method} +clearanceLevel () : ClearanceLevel
	{method} +equals ( o : Object ) : boolean
	{method} +hashCode () : int
	{method} +id () : UUID
	{method} +name () : String
	{method} +parent () : UUID
	{method} +toString () : String
}


class Threat {
	{field} -charisma : String
	{field} -cosms : Set
	{field} -dexterity : String
	{field} -equipment : List
	{field} -id : UUID
	{field} -mind : String
	{field} -moveFly : String
	{field} -moveSwim : String
	{field} -moveWalk : String
	{field} -name : String
	{field} -perks : List
	{field} -possibilities : String
	{field} -products : Set
	{field} -quote : String
	{field} -shock : String
	{field} -skills : Map
	{field} -specialAbilities : Map
	{field} -spirit : String
	{field} -strength : String
	{field} -subName : String
	{field} -text : String
	{field} -tough : String
	{field} -unique : boolean
	{field} -wounds : String
	{method} +charisma () : String
	{method} +clearanceLevel () : ClearanceLevel
	{method} +cosms () : Set
	{method} +dexterity () : String
	{method} +equals ( o : Object ) : boolean
	{method} +equipment () : List
	{method} +hashCode () : int
	{method} +id () : UUID
	{method} +mind () : String
	{method} +moveFly () : String
	{method} +moveSwim () : String
	{method} +moveWalk () : String
	{method} +name () : String
	{method} +perks () : List
	{method} +possibilities () : String
	{method} +products () : Set
	{method} +quote () : String
	{method} +shock () : String
	{method} +skills () : Map
	{method} +specialAbilities () : Map
	{method} +spirit () : String
	{method} +strength () : String
	{method} +subName () : String
	{method} +text () : String
	{method} +toString () : String
	{method} +tough () : String
	{method} +unique () : boolean
	{method} +wounds () : String
}


class Vehicle {
	{field} -axiomTech : String
	{field} -cosms : Set
	{field} -id : UUID
	{field} -maneuverRating : String
	{field} -name : String
	{field} -passengers : String
	{field} -price : String
	{field} -products : Set
	{field} -size : String
	{field} -speed : String
	{field} -speedMod : String
	{field} -speedValue : String
	{field} -text : String
	{field} -tough : String
	{field} -type : String
	{field} -unique : boolean
	{field} -wounds : String
	{method} +axiomTech () : String
	{method} +clearanceLevel () : ClearanceLevel
	{method} +cosms () : Set
	{method} +equals ( o : Object ) : boolean
	{method} +hashCode () : int
	{method} +id () : UUID
	{method} +maneuverRating () : String
	{method} +name () : String
	{method} +passengers () : String
	{method} +price () : String
	{method} +products () : Set
	{method} +size () : String
	{method} +speed () : String
	{method} +speedMod () : String
	{method} +speedValue () : String
	{method} +text () : String
	{method} +toString () : String
	{method} +tough () : String
	{method} +type () : String
	{method} +unique () : boolean
	{method} +weaponry () : List
	{method} +wounds () : String
}


class VehicleWeapon {
	{field} -ammo : String
	{field} -amount : String
	{field} -weaponId : UUID
	{method} +ammo () : String
	{method} +amount () : String
	{method} +equals ( o : Object ) : boolean
	{method} +hashCode () : int
	{method} +toString () : String
	{method} +weaponId () : UUID
}




Article *--  ClearanceLevel : clearanceLevel
Cosm *--  ClearanceLevel : clearanceLevel
Item *--  ClearanceLevel : clearanceLevel
Miracle *--  ClearanceLevel : clearanceLevel
Miracle *--  DifficultyNumber : dn
MiracleList *--  ClearanceLevel : clearanceLevel
Perk *--  ClearanceLevel : clearanceLevel
PerkGroup *--  ClearanceLevel : clearanceLevel
Power *--  ClearanceLevel : clearanceLevel
Power *--  DifficultyNumber : dn
PowerList *--  ClearanceLevel : clearanceLevel
Race *--  ClearanceLevel : clearanceLevel
Shard *--  ClearanceLevel : clearanceLevel
Spell *--  ClearanceLevel : clearanceLevel
Spell *--  DifficultyNumber : dn
SpellList *--  ClearanceLevel : clearanceLevel
Tag *--  ClearanceLevel : clearanceLevel
Threat *--  ClearanceLevel : clearanceLevel
Vehicle "1" o-- "0..*"  VehicleWeapon : weaponry
Vehicle *--  ClearanceLevel : clearanceLevel

hide methods

@enduml